<?xml version='1.0' encoding='iso-8859-1'?>
<!DOCTYPE svg PUBLIC '-//W3C//DTD SVG 1.1//EN' 'http://www.w3.org/Graphics/SVG/1.1/DTD/svg11.dtd'>
<svg version="1.1" xmlns="http://www.w3.org/2000/svg" viewBox="0 0 297 297" xmlns:xlink="http://www.w3.org/1999/xlink" enable-background="new 0 0 297 297">
  <g>
    <path d="m107.754,73.096c-24.09,0-43.688,19.604-43.688,43.7s19.599,43.702 43.688,43.702c24.089,0 43.688-19.605 43.688-43.702s-19.599-43.7-43.688-43.7zm15.93,62.669h-31.862c-3.788,0-6.858-3.07-6.858-6.857 0-3.788 3.07-6.858 6.858-6.858h31.862c3.788,0 6.858,3.07 6.858,6.858 0.001,3.786-3.069,6.857-6.858,6.857zm0-24.221h-31.862c-3.788,0-6.858-3.07-6.858-6.858 0-3.788 3.07-6.858 6.858-6.858h31.862c3.788,0 6.858,3.07 6.858,6.858 0.001,3.788-3.069,6.858-6.858,6.858z"/>
    <path d="m278.075,22.981l-67.497-22.625c-1.726-0.58-3.609-0.447-5.236,0.363-1.629,0.811-2.868,2.235-3.446,3.961l-9.178,27.392c-1.202,3.591 0.733,7.477 4.324,8.681l3.207,1.075-23.585,11.749c-17.709-19.33-42.525-30.313-68.91-30.313-51.561,0-93.51,41.958-93.51,93.53 0,22.253 7.948,43.815 22.381,60.714 12.996,15.216 30.522,25.859 49.831,30.37v17.621h-22.025c-3.788,0-6.858,3.07-6.858,6.858v28.891c0,3.788 3.07,6.858 6.858,6.858h22.025v22.034c0,3.788 3.07,6.857 6.857,6.857h28.883c3.787,0 6.857-3.069 6.857-6.857v-22.034h22.026c3.788,0 6.858-3.07 6.858-6.858v-28.891c0-3.788-3.07-6.858-6.858-6.858h-22.026v-17.622c19.309-4.512 36.833-15.154 49.829-30.37 14.433-16.898 22.38-38.46 22.38-60.713 0-8.879-1.235-17.611-3.677-26.043l24.111-12.011-2.311,6.897c-1.203,3.591 0.732,7.477 4.323,8.681l27.387,9.181c1.723,0.579 3.608,0.447 5.236-0.363 1.629-0.811 2.869-2.235 3.447-3.96l22.619-67.517c1.204-3.588-0.73-7.474-4.322-8.678zm-170.321,151.233c-31.653,0-57.404-25.758-57.404-57.418 0-31.659 25.751-57.416 57.404-57.416 31.652,0 57.403,25.757 57.403,57.416 0,31.66-25.751,57.418-57.403,57.418z"/>
  </g>
</svg>
