<?xml version="1.0" encoding="iso-8859-1"?>
<!-- Generator: Adobe Illustrator 19.0.0, SVG Export Plug-In . SVG Version: 6.00 Build 0)  -->
<svg version="1.1" id="Layer_1" xmlns="http://www.w3.org/2000/svg" xmlns:xlink="http://www.w3.org/1999/xlink" x="0px" y="0px"
	 viewBox="0 0 330 330" style="enable-background:new 0 0 330 330;" xml:space="preserve">
<path id="XMLID_312_" d="M324.828,3.668c-3.285-2.849-7.645-4.132-11.949-3.518l-210,30C95.488,31.206,90,37.535,90,45v60V227.4
	C81.168,222.703,70.925,220,60,220c-33.084,0-60,24.673-60,55c0,30.327,26.916,55,60,55s60-24.673,60-55V118.009l180-25.714V202.4
	c-8.832-4.696-19.075-7.399-30-7.399c-33.084,0-60,24.673-60,55s26.916,55,60,55s60-24.673,60-55V75V15
	C330,10.652,328.113,6.517,324.828,3.668z"/>
<g>
</g>
<g>
</g>
<g>
</g>
<g>
</g>
<g>
</g>
<g>
</g>
<g>
</g>
<g>
</g>
<g>
</g>
<g>
</g>
<g>
</g>
<g>
</g>
<g>
</g>
<g>
</g>
<g>
</g>
</svg>
