<svg height="512pt" viewBox="0 0 512 512" width="512pt" xmlns="http://www.w3.org/2000/svg"><g fill-rule="evenodd"><path d="m95.332031 401.667969c-52.648437 0-95.332031 42.679687-95.332031 95.332031 0 8.285156 6.714844 15 15 15h160.667969c8.28125 0 15-6.714844 15-15 0-52.652344-42.683594-95.332031-95.335938-95.332031zm0 0"/><path d="m31.066406 337.398438c0 35.4375 28.832032 64.269531 64.269532 64.269531 35.433593 0 64.265624-28.832031 64.265624-64.269531 0-35.433594-28.832031-64.265626-64.265624-64.265626-35.4375 0-64.269532 28.832032-64.269532 64.265626zm0 0"/><path d="m336.332031 238.867188h160.667969c8.285156 0 15-6.714844 15-15 0-52.652344-42.683594-95.332032-95.332031-95.332032-52.652344 0-95.332031 42.679688-95.332031 95.332032-.003907 8.285156 6.714843 15 14.996093 15zm0 0"/><path d="m416.667969 128.53125c35.4375 0 64.265625-28.828125 64.265625-64.265625s-28.828125-64.265625-64.265625-64.265625-64.269531 28.828125-64.269531 64.265625 28.832031 64.265625 64.269531 64.265625zm0 0"/><path d="m55.167969 238.867188h163.851562c30.417969 0 55.164063-24.75 55.164063-55.167969v-114.285157l43.808594-43.808593c9.429687-9.429688 2.726562-25.605469-10.605469-25.605469h-252.21875c-30.515625 0-55.167969 24.6875-55.167969 55.167969v128.53125c0 30.511719 24.683594 55.167969 55.167969 55.167969zm114.058593-166.566407c8.28125 0 15 6.71875 15 15 0 8.277344-6.71875 15-15 15s-15-6.722656-15-15c0-8.28125 6.71875-15 15-15zm-64.265624 0c8.277343 0 15 6.71875 15 15 0 8.277344-6.722657 15-15 15-8.28125 0-15-6.722656-15-15 0-8.28125 6.71875-15 15-15zm-25.066407 51.195313c6.628907-4.96875 16.03125-3.621094 21 3.007812 8.496094 11.332032 22.027344 18.097656 36.199219 18.097656s27.703125-6.765624 36.195312-18.097656c4.96875-6.628906 14.371094-7.972656 21-3.007812 6.628907 4.972656 7.972657 14.371094 3.003907 21-14.128907 18.851562-36.632813 30.105468-60.199219 30.105468s-46.074219-11.253906-60.203125-30.105468c-4.96875-6.628906-3.625-16.027344 3.003906-21zm0 0"/><path d="m456.832031 512h-163.851562c-30.417969 0-55.164063-24.746094-55.164063-55.167969v-114.285156l-43.808594-43.808594c-9.429687-9.429687-2.726562-25.605469 10.605469-25.605469h252.21875c30.515625 0 55.167969 24.691407 55.167969 55.167969v128.535157c0 30.507812-24.683594 55.164062-55.167969 55.164062zm-114.058593-166.566406c-8.28125 0-15 6.71875-15 15s6.71875 15 15 15 15-6.71875 15-15-6.71875-15-15-15zm64.265624 0c-8.277343 0-15 6.71875-15 15s6.722657 15 15 15c8.28125 0 15-6.71875 15-15s-6.71875-15-15-15zm25.066407 51.199218c-6.628907-4.972656-16.03125-3.625-21 3.003907-8.496094 11.332031-22.027344 18.097656-36.199219 18.097656s-27.703125-6.765625-36.195312-18.097656c-4.96875-6.628907-14.371094-7.972657-21-3.003907-6.628907 4.96875-7.972657 14.371094-3.003907 21 14.128907 18.847657 36.632813 30.101563 60.199219 30.101563s46.074219-11.253906 60.203125-30.101563c4.96875-6.628906 3.625-16.03125-3.003906-21zm0 0"/></g></svg>